<svg xmlns="http://www.w3.org/2000/svg" version="1.1" xmlns:xlink="http://www.w3.org/1999/xlink" xmlns:svgjs="http://svgjs.dev/svgjs" viewBox="0 0 800 800"><defs><linearGradient x1="50%" y1="0%" x2="50%" y2="100%" id="ffflurry-grad" gradientTransform="rotate(270)"><stop stop-color="hsl(238, 82%, 13%)" stop-opacity="1" offset="0%"></stop><stop stop-color="hsl(1.4, 100%, 67%)" stop-opacity="1" offset="45%"></stop><stop stop-color="hsl(167, 52%, 78%)" stop-opacity="1" offset="100%"></stop></linearGradient></defs><rect width="100%" height="100%" fill="hsl(238, 82%, 13%)"></rect><g fill="url(#ffflurry-grad)"><rect width="448" height="3" x="12" y="444.5" rx="1.5" transform="rotate(45, 236, 446)" opacity="0.60"></rect><rect width="312" height="3" x="-44" y="212.5" rx="1.5" transform="rotate(45, 112, 214)" opacity="0.66"></rect><rect width="455" height="3" x="516.5" y="611.5" rx="1.5" transform="rotate(45, 744, 613)" opacity="0.98"></rect><rect width="390" height="3" x="384" y="230.5" rx="1.5" transform="rotate(45, 579, 232)" opacity="0.77"></rect><rect width="295" height="3" x="3.5" y="133.5" rx="1.5" transform="rotate(45, 151, 135)" opacity="0.57"></rect><rect width="189" height="3" x="-63.5" y="663.5" rx="1.5" transform="rotate(45, 31, 665)" opacity="0.23"></rect><rect width="99" height="3" x="426.5" y="225.5" rx="1.5" transform="rotate(45, 476, 227)" opacity="0.52"></rect><rect width="179" height="3" x="558.5" y="593.5" rx="1.5" transform="rotate(45, 648, 595)" opacity="0.30"></rect><rect width="216" height="3" x="475" y="726.5" rx="1.5" transform="rotate(45, 583, 728)" opacity="0.50"></rect><rect width="123" height="3" x="45.5" y="300.5" rx="1.5" transform="rotate(45, 107, 302)" opacity="0.35"></rect><rect width="313" height="3" x="541.5" y="689.5" rx="1.5" transform="rotate(45, 698, 691)" opacity="0.94"></rect><rect width="112" height="3" x="715" y="261.5" rx="1.5" transform="rotate(45, 771, 263)" opacity="0.73"></rect><rect width="617" height="3" x="-145.5" y="364.5" rx="1.5" transform="rotate(45, 163, 366)" opacity="0.81"></rect><rect width="254" height="3" x="75" y="767.5" rx="1.5" transform="rotate(45, 202, 769)" opacity="0.61"></rect><rect width="261" height="3" x="207.5" y="739.5" rx="1.5" transform="rotate(45, 338, 741)" opacity="0.45"></rect><rect width="536" height="3" x="251" y="116.5" rx="1.5" transform="rotate(45, 519, 118)" opacity="0.32"></rect><rect width="256" height="3" x="625" y="763.5" rx="1.5" transform="rotate(45, 753, 765)" opacity="0.96"></rect><rect width="110" height="3" x="62" y="706.5" rx="1.5" transform="rotate(45, 117, 708)" opacity="0.55"></rect><rect width="328" height="3" x="-107" y="758.5" rx="1.5" transform="rotate(45, 57, 760)" opacity="0.95"></rect><rect width="161" height="3" x="127.5" y="619.5" rx="1.5" transform="rotate(45, 208, 621)" opacity="0.89"></rect><rect width="514" height="3" x="252" y="639.5" rx="1.5" transform="rotate(45, 509, 641)" opacity="0.20"></rect><rect width="88" height="3" x="142" y="686.5" rx="1.5" transform="rotate(45, 186, 688)" opacity="0.33"></rect><rect width="59" height="3" x="19.5" y="572.5" rx="1.5" transform="rotate(45, 49, 574)" opacity="0.24"></rect><rect width="307" height="3" x="196.5" y="618.5" rx="1.5" transform="rotate(45, 350, 620)" opacity="0.67"></rect><rect width="345" height="3" x="587.5" y="317.5" rx="1.5" transform="rotate(45, 760, 319)" opacity="0.43"></rect><rect width="202" height="3" x="-54" y="506.5" rx="1.5" transform="rotate(45, 47, 508)" opacity="0.08"></rect><rect width="257" height="3" x="646.5" y="684.5" rx="1.5" transform="rotate(45, 775, 686)" opacity="0.54"></rect><rect width="236" height="3" x="614" y="202.5" rx="1.5" transform="rotate(45, 732, 204)" opacity="0.21"></rect><rect width="417" height="3" x="71.5" y="579.5" rx="1.5" transform="rotate(45, 280, 581)" opacity="0.77"></rect><rect width="344" height="3" x="102" y="340.5" rx="1.5" transform="rotate(45, 274, 342)" opacity="0.16"></rect><rect width="220" height="3" x="659" y="432.5" rx="1.5" transform="rotate(45, 769, 434)" opacity="0.48"></rect><rect width="452" height="3" x="177" y="398.5" rx="1.5" transform="rotate(45, 403, 400)" opacity="0.08"></rect><rect width="164" height="3" x="265" y="533.5" rx="1.5" transform="rotate(45, 347, 535)" opacity="0.39"></rect><rect width="508" height="3" x="449" y="418.5" rx="1.5" transform="rotate(45, 703, 420)" opacity="0.65"></rect><rect width="358" height="3" x="407" y="164.5" rx="1.5" transform="rotate(45, 586, 166)" opacity="0.89"></rect><rect width="193" height="3" x="403.5" y="739.5" rx="1.5" transform="rotate(45, 500, 741)" opacity="0.80"></rect><rect width="533" height="3" x="315.5" y="38.5" rx="1.5" transform="rotate(45, 582, 40)" opacity="0.25"></rect><rect width="680" height="3" x="-131" y="243.5" rx="1.5" transform="rotate(45, 209, 245)" opacity="0.32"></rect><rect width="462" height="3" x="108" y="442.5" rx="1.5" transform="rotate(45, 339, 444)" opacity="0.60"></rect><rect width="328" height="3" x="327" y="369.5" rx="1.5" transform="rotate(45, 491, 371)" opacity="0.44"></rect><rect width="127" height="3" x="629.5" y="326.5" rx="1.5" transform="rotate(45, 693, 328)" opacity="0.63"></rect><rect width="215" height="3" x="313.5" y="507.5" rx="1.5" transform="rotate(45, 421, 509)" opacity="0.91"></rect><rect width="516" height="3" x="155" y="580.5" rx="1.5" transform="rotate(45, 413, 582)" opacity="0.16"></rect><rect width="572" height="3" x="59" y="124.5" rx="1.5" transform="rotate(45, 345, 126)" opacity="0.46"></rect><rect width="359" height="3" x="389.5" y="446.5" rx="1.5" transform="rotate(45, 569, 448)" opacity="0.89"></rect><rect width="201" height="3" x="666.5" y="511.5" rx="1.5" transform="rotate(45, 767, 513)" opacity="0.48"></rect><rect width="648" height="3" x="209" y="306.5" rx="1.5" transform="rotate(45, 533, 308)" opacity="0.42"></rect><rect width="495" height="3" x="364.5" y="377.5" rx="1.5" transform="rotate(45, 612, 379)" opacity="0.49"></rect><rect width="158" height="3" x="27" y="618.5" rx="1.5" transform="rotate(45, 106, 620)" opacity="0.58"></rect><rect width="367" height="3" x="232.5" y="760.5" rx="1.5" transform="rotate(45, 416, 762)" opacity="0.11"></rect><rect width="117" height="3" x="68.5" y="459.5" rx="1.5" transform="rotate(45, 127, 461)" opacity="0.45"></rect><rect width="396" height="3" x="31" y="110.5" rx="1.5" transform="rotate(45, 229, 112)" opacity="0.92"></rect><rect width="615" height="3" x="174.5" y="461.5" rx="1.5" transform="rotate(45, 482, 463)" opacity="0.83"></rect><rect width="61" height="3" x="603.5" y="283.5" rx="1.5" transform="rotate(45, 634, 285)" opacity="0.20"></rect><rect width="137" height="3" x="236.5" y="223.5" rx="1.5" transform="rotate(45, 305, 225)" opacity="0.20"></rect><rect width="230" height="3" x="545" y="133.5" rx="1.5" transform="rotate(45, 660, 135)" opacity="0.63"></rect><rect width="485" height="3" x="-204.5" y="163.5" rx="1.5" transform="rotate(45, 38, 165)" opacity="0.65"></rect><rect width="79" height="3" x="612.5" y="466.5" rx="1.5" transform="rotate(45, 652, 468)" opacity="0.16"></rect><rect width="545" height="3" x="149.5" y="663.5" rx="1.5" transform="rotate(45, 422, 665)" opacity="0.59"></rect><rect width="434" height="3" x="-185" y="298.5" rx="1.5" transform="rotate(45, 32, 300)" opacity="0.94"></rect><rect width="314" height="3" x="116" y="513.5" rx="1.5" transform="rotate(45, 273, 515)" opacity="0.79"></rect><rect width="431" height="3" x="484.5" y="530.5" rx="1.5" transform="rotate(45, 700, 532)" opacity="0.79"></rect><rect width="610" height="3" x="-261" y="409.5" rx="1.5" transform="rotate(45, 44, 411)" opacity="0.77"></rect><rect width="242" height="3" x="375" y="556.5" rx="1.5" transform="rotate(45, 496, 558)" opacity="0.51"></rect><rect width="439" height="3" x="518.5" y="63.5" rx="1.5" transform="rotate(45, 738, 65)" opacity="0.32"></rect><rect width="610" height="3" x="350" y="754.5" rx="1.5" transform="rotate(45, 655, 756)" opacity="0.22"></rect><rect width="145" height="3" x="206.5" y="37.5" rx="1.5" transform="rotate(45, 279, 39)" opacity="0.92"></rect><rect width="289" height="3" x="616.5" y="373.5" rx="1.5" transform="rotate(45, 761, 375)" opacity="0.69"></rect><rect width="179" height="3" x="493.5" y="617.5" rx="1.5" transform="rotate(45, 583, 619)" opacity="0.87"></rect><rect width="503" height="3" x="319.5" y="522.5" rx="1.5" transform="rotate(45, 571, 524)" opacity="0.25"></rect><rect width="98" height="3" x="218" y="714.5" rx="1.5" transform="rotate(45, 267, 716)" opacity="0.44"></rect><rect width="113" height="3" x="26.5" y="47.5" rx="1.5" transform="rotate(45, 83, 49)" opacity="0.63"></rect><rect width="708" height="3" x="74" y="49.5" rx="1.5" transform="rotate(45, 428, 51)" opacity="0.89"></rect><rect width="435" height="3" x="-45.5" y="542.5" rx="1.5" transform="rotate(45, 172, 544)" opacity="0.33"></rect><rect width="253" height="3" x="170.5" y="650.5" rx="1.5" transform="rotate(45, 297, 652)" opacity="0.83"></rect><rect width="266" height="3" x="256" y="302.5" rx="1.5" transform="rotate(45, 389, 304)" opacity="0.30"></rect><rect width="315" height="3" x="253.5" y="178.5" rx="1.5" transform="rotate(45, 411, 180)" opacity="0.24"></rect></g></svg>