<svg xmlns="http://www.w3.org/2000/svg" version="1.1" xmlns:xlink="http://www.w3.org/1999/xlink" xmlns:svgjs="http://svgjs.dev/svgjs" viewBox="0 0 800 800"><defs><filter id="llleaves-blur-2" x="-100%" y="-100%" width="400%" height="400%"><feGaussianBlur in="SourceGraphic" stdDeviation="2"></feGaussianBlur></filter><filter id="llleaves-blur-3" x="-100%" y="-100%" width="400%" height="400%"><feGaussianBlur in="SourceGraphic" stdDeviation="4"></feGaussianBlur></filter><filter id="llleaves-blur-4" x="-100%" y="-100%" width="400%" height="400%"><feGaussianBlur in="SourceGraphic" stdDeviation="12"></feGaussianBlur></filter></defs><g fill="hsl(305, 77%, 40%)"><path d="M486 232H536C564 232 586 254 586 282H536C508 282 486 260 486 232Z " transform="matrix(-0.17922801839207375,-0.44360491208607544,0.44360491208607544,-0.17922801839207375,518.0597554520301,540.8338336048994)" opacity="0.73"></path><path d="M260 539H310C338 539 360 561 360 589H310C282 589 260 567 260 539Z " transform="matrix(0.11046012215332421,-0.5196740165791991,0.5196740165791991,0.11046012215332421,-17.338783218198785,662.7994362450769)" opacity="0.82"></path><path d="M248 644H298C326 644 348 666 348 694H298C270 694 248 672 248 644Z " transform="matrix(0.10095859493826473,-0.5193869450363713,0.5193869450363713,0.10095859493826473,-79.5555275209353,756.2360096071395)" opacity="0.81"></path><path d="M699 354H749C777 354 799 376 799 404H749C721 404 699 382 699 354Z " transform="matrix(-0.3663617950458381,0.03205250381551903,-0.03205250381551903,-0.3663617950458381,1035.5528834354145,493.8437949645489)" filter="url(#llleaves-blur-2)" opacity="0.56"></path><path d="M397 733H447C475 733 497 755 497 783H447C419 783 397 761 397 733Z " transform="matrix(0.027100039089396885,-0.5170995501075584,0.5170995501075584,0.027100039089396885,42.92482354551038,968.6016692683156)" opacity="0.80"></path><path d="M348 472H398C426 472 448 494 448 522H398C370 522 348 500 348 472Z " transform="matrix(0.10092366361021934,-0.5192072389323922,0.5192072389323922,0.10092366361021934,99.78638413373375,653.4854202808131)" opacity="0.81"></path><path d="M501 730H551C579 730 601 752 601 780H551C523 780 501 758 501 730Z " transform="matrix(-0.22074872466399376,-0.41516796866702366,0.41516796866702366,-0.22074872466399376,359.1807309462577,1150.4228378568453)" opacity="0.72"></path><path d="M677 13H727C755 13 777 35 777 63H727C699 63 677 41 677 13Z " transform="matrix(-0.38270710476006614,-0.12434907622481589,0.12434907622481589,-0.38270710476006614,1000.5028002640252,142.94464839632366)" opacity="0.62"></path><path d="M-2 135H48C76 135 98 157 98 185H48C20 185 -2 163 -2 135Z " transform="matrix(-0.3823317735654282,-0.12422712372706739,0.12422712372706739,-0.3823317735654282,46.47558533480977,227.1359857093678)" opacity="0.62"></path><path d="M700 644H750C778 644 800 666 800 694H750C722 694 700 672 700 644Z " transform="matrix(-0.35184622292399304,0.06839197758090443,-0.06839197758090443,-0.35184622292399304,1059.6389001946197,853.0911399504729)" filter="url(#llleaves-blur-2)" opacity="0.55"></path><path d="M167 604H217C245 604 267 626 267 654H217C189 654 167 632 167 604Z " transform="matrix(-0.008923581837761778,-0.5112316610943144,0.5112316610943144,-0.008923581837761778,-102.62829756952948,745.5502034334185)" opacity="0.79"></path><path d="M706 544H756C784 544 806 566 806 594H756C728 594 706 572 706 544Z " transform="matrix(-0.35184622292399304,0.06839197758090443,-0.06839197758090443,-0.35184622292399304,1060.9107797740735,717.4961657925883)" filter="url(#llleaves-blur-2)" opacity="0.55"></path><path d="M115 15H165C193 15 215 37 215 65H165C137 65 115 43 115 15Z " transform="matrix(-0.08622211600352746,-0.48898991893977445,0.48898991893977445,-0.08622211600352746,159.66705238299105,124.13222126520388)" opacity="0.76"></path><path d="M345 664H395C423 664 445 686 445 714H395C367 714 345 692 345 664Z " transform="matrix(0.10092366361021934,-0.5192072389323922,0.5192072389323922,0.10092366361021934,-2.5986347504548917,824.5504551508538)" opacity="0.81"></path><path d="M623 595H673C701 595 723 617 723 645H673C645 645 623 623 623 595Z " transform="matrix(-0.3813577264990708,-0.13880286105309309,0.13880286105309309,-0.3813577264990708,843.5959760809569,949.8561159181556)" opacity="0.62"></path><path d="M703 732H753C781 732 803 754 803 782H753C725 782 703 760 703 732Z " transform="matrix(-0.35184622292399304,0.06839197758090443,-0.06839197758090443,-0.35184622292399304,1069.7129328905114,971.8484316350418)" filter="url(#llleaves-blur-2)" opacity="0.55"></path><path d="M219 32H269C297 32 319 54 319 82H269C241 82 219 60 219 32Z " transform="matrix(0.2044911987235359,-0.5061334775999631,0.5061334775999631,0.2044911987235359,185.14225932017098,181.4939071471485)" opacity="0.84"></path><path d="M513 339H563C591 339 613 361 613 389H563C535 389 513 367 513 339Z " transform="matrix(-0.22074872466399376,-0.41516796866702366,0.41516796866702366,-0.22074872466399376,536.1603913910319,678.0921021372282)" opacity="0.72"></path><path d="M431 410H481C509 410 531 432 531 460H481C453 460 431 438 431 410Z " transform="matrix(-0.03536171008050299,-0.505696014127877,0.505696014127877,-0.03536171008050299,278.0312164030954,693.6221266805277)" opacity="0.78"></path><path d="M-7 492H43C71 492 93 514 93 542H43C15 542 -7 520 -7 492Z " transform="matrix(-0.38313765725157023,-0.11713693704399707,0.11713693704399707,-0.38313765725157023,-1.084877189928953,720.1190570919537)" opacity="0.61"></path><path d="M271 735H321C349 735 371 757 371 785H321C293 785 271 763 271 735Z " transform="matrix(0.11979856989203477,-0.518904615261093,0.518904615261093,0.11979856989203477,-111.82284853377382,835.5214683808645)" opacity="0.82"></path><path d="M68 284H118C146 284 168 306 168 334H118C90 334 68 312 68 284Z " transform="matrix(-0.2571216348046653,-0.3811984999215833,0.3811984999215833,-0.2571216348046653,30.550016431181263,433.43200814538835)" opacity="0.71"></path><path d="M686 181H736C764 181 786 203 786 231H736C708 231 686 209 686 181Z " transform="matrix(-0.3663617950458381,0.03205250381551903,-0.03205250381551903,-0.3663617950458381,1012.2450969397339,257.8798869712207)" filter="url(#llleaves-blur-2)" opacity="0.56"></path><path d="M173 490H223C251 490 273 512 273 540H223C195 540 173 518 173 490Z " transform="matrix(-0.008923581837761778,-0.5112316610943144,0.5112316610943144,-0.008923581837761778,-38.29434671375111,633.6003050704794)" opacity="0.79"></path><path d="M100 360H150C178 360 200 382 200 410H150C122 410 100 388 100 360Z " transform="matrix(-0.17197223164163786,-0.4480029800806195,0.4480029800806195,-0.17197223164163786,3.3146874152071746,518.4097561941235)" opacity="0.74"></path><path d="M702 447H752C780 447 802 469 802 497H752C724 497 702 475 702 447Z " transform="matrix(-0.35184622292399304,0.06839197758090443,-0.06839197758090443,-0.35184622292399304,1048.8693730570299,586.6406500792846)" filter="url(#llleaves-blur-2)" opacity="0.55"></path><path d="M320 21H370C398 21 420 43 420 71H370C342 71 320 49 320 21Z " transform="matrix(0.2419791656905247,-0.49613081299743583,0.49613081299743583,0.2419791656905247,257.6456912966238,218.43735918728714)" opacity="0.85"></path><path d="M81 553H131C159 553 181 575 181 603H131C103 603 81 581 81 553Z " transform="matrix(-0.2571216348046653,-0.3811984999215833,0.3811984999215833,-0.2571216348046653,-55.64979879526399,776.5533084068239)" opacity="0.71"></path><path d="M173 260H223C251 260 273 282 273 310H223C195 310 173 288 173 260Z " transform="matrix(-0.008923581837761778,-0.5112316610943144,0.5112316610943144,-0.008923581837761778,79.28893533794127,401.5478812477942)" opacity="0.79"></path><path d="M414 304H464C492 304 514 326 514 354H464C436 354 414 332 414 304Z " transform="matrix(-9.417950061538398e-17,-0.5126893222380822,0.5126893222380822,-9.417950061538398e-17,295.325212983671,566.8878455184702)" opacity="0.79"></path><path d="M601 282H651C679 282 701 304 701 332H651C623 332 601 310 601 282Z " transform="matrix(-0.3733635484667486,-0.18210156996982255,0.18210156996982255,-0.3733635484667486,838.1544880711178,540.1707314296464)" opacity="0.64"></path><path d="M9 728H59C87 728 109 750 109 778H59C31 778 9 756 9 728Z " transform="matrix(-0.3745047722568514,-0.17463444331896338,0.17463444331896338,-0.3745047722568514,-50.40395425602519,1045.3055256652278)" opacity="0.63"></path><path d="M521 449H571C599 449 621 471 621 499H571C543 499 521 477 521 449Z " transform="matrix(-0.2514206783723086,-0.3871538938040129,0.3871538938040129,-0.2514206783723086,531.0502616874861,814.2382749105657)" opacity="0.71"></path><path d="M551 649H601C629 649 651 671 651 699H601C573 699 551 677 551 649Z " transform="matrix(-0.3137103337221356,-0.31371033372213547,0.31371033372213547,-0.3137103337221356,578.0991456382842,1073.9806754957228)" opacity="0.68"></path><path d="M439 520H489C517 520 539 542 539 570H489C461 570 439 548 439 520Z " transform="matrix(-0.06966711508334628,-0.49570728130990016,0.49570728130990016,-0.06966711508334628,252.90675096186075,825.3694382809649)" opacity="0.77"></path><path d="M332 116H382C410 116 432 138 432 166H382C354 166 332 144 332 116Z " transform="matrix(0.15751466588020333,-0.5152072573439176,0.5152072573439176,0.15751466588020333,249.18517434826992,315.5996044162679)" opacity="0.83"></path><path d="M449 632H499C527 632 549 654 549 682H499C471 682 449 660 449 632Z " transform="matrix(-0.06966711508334628,-0.49570728130990016,0.49570728130990016,-0.06966711508334628,208.0842066059854,950.1292279833988)" opacity="0.77"></path><path d="M-9 246H41C69 246 91 268 91 296H41C13 296 -9 274 -9 246Z " transform="matrix(-0.38313765725157023,-0.11713693704399707,0.11713693704399707,-0.38313765725157023,24.964534008391176,379.6329195339794)" opacity="0.61"></path><path d="M705 94H755C783 94 805 116 805 144H755C727 144 705 122 705 94Z " transform="matrix(-0.35977022369368084,0.050562407538976104,-0.050562407538976104,-0.35977022369368084,1032.6434453858672,123.63803892762105)" filter="url(#llleaves-blur-2)" opacity="0.56"></path><path d="M540 21H590C618 21 640 43 640 71H590C562 71 540 49 540 21Z " transform="matrix(-0.1862722834461519,-0.43882999964400954,0.43882999964400954,-0.1862722834461519,679.7144672496051,313.4782248284886)" opacity="0.73"></path><path d="M609 724H659C687 724 709 746 709 774H659C631 774 609 752 609 724Z " transform="matrix(-0.3733635484667486,-0.18210156996982255,0.18210156996982255,-0.3733635484667486,768.6525025321903,1148.6542324117077)" opacity="0.64"></path><path d="M99 98H149C177 98 199 120 199 148H149C121 148 99 126 99 98Z " transform="matrix(-0.17951424109254757,-0.4443133381291675,0.4443133381291675,-0.17951424109254757,121.09708133290198,211.28293903562934)" opacity="0.74"></path><path d="M262 427H312C340 427 362 449 362 477H312C284 477 262 455 262 427Z " transform="matrix(0.11046012215332421,-0.5196740165791991,0.5196740165791991,0.11046012215332421,42.64378639436484,564.2103179594077)" opacity="0.82"></path></g><g fill="none" stroke-width="3" stroke="hsl(305, 77%, 40%)"><path d="M-5 371H45C73 371 95 393 95 421H45C17 421 -5 399 -5 371Z " transform="matrix(-0.38313765725157023,-0.11713693704399707,0.11713693704399707,-0.38313765725157023,15.854967506897818,552.9936744386017)" opacity="0.61"></path><path d="M613 492H663C691 492 713 514 713 542H663C635 542 613 520 613 492Z " transform="matrix(-0.3733635484667486,-0.18210156996982255,0.18210156996982255,-0.3733635484667486,816.3935209590559,830.7622954473013)" opacity="0.64"></path><path d="M341 361H391C419 361 441 383 441 411H391C363 411 341 389 341 361Z " transform="matrix(0.10092366361021934,-0.5192072389323922,0.5192072389323922,0.10092366361021934,151.12485330050086,550.0534962690207)" opacity="0.81"></path><path d="M373 215H423C451 215 473 237 473 265H423C395 265 373 243 373 215Z " transform="matrix(0.05458976993552089,-0.5193869666387112,0.5193869666387112,0.05458976993552089,275.255655323984,446.5991421036498)" opacity="0.80"></path><path d="M3 27H53C81 27 103 49 103 77H53C25 77 3 55 3 27Z " transform="matrix(-0.3665623761696875,-0.2031888430328925,0.2031888430328925,-0.3665623761696875,61.86198609928303,81.83025224156705)" opacity="0.64"></path><path d="M529 554H579C607 554 629 576 629 604H579C551 604 529 582 529 554Z " transform="matrix(-0.2514206783723086,-0.3871538938040129,0.3871538938040129,-0.2514206783723086,500.41046826504316,948.7346772900901)" opacity="0.71"></path><path d="M594 96H644C672 96 694 118 694 146H644C616 146 594 124 594 96Z " transform="matrix(-0.3447209735736847,-0.2597658857918282,0.2597658857918282,-0.3447209735736847,834.5686348006418,330.0004682523532)" opacity="0.66"></path><path d="M573 186H623C651 186 673 208 673 236H623C595 236 573 214 573 186Z " transform="matrix(-0.3375611981217475,-0.2733516684651677,0.2733516684651677,-0.3375611981217475,775.6234243836983,452.5235022574882)" opacity="0.67"></path><path d="M201 136H251C279 136 301 158 301 186H251C223 186 201 164 201 136Z " transform="matrix(0.09171860864092413,-0.520162077705906,0.520162077705906,0.09171860864092413,144.2325347204772,276.79398551299363)" opacity="0.81"></path><path d="M187 374H237C265 374 287 396 287 424H237C209 424 187 402 187 374Z " transform="matrix(0.027063276968866685,-0.5163980870607909,0.5163980870607909,0.027063276968866685,24.543166621122992,510.5880991228296)" opacity="0.79"></path><path d="M354 574H404C432 574 454 596 454 624H404C376 624 354 602 354 574Z " transform="matrix(0.0822791373817567,-0.519490028270223,0.519490028270223,0.0822791373817567,59.58470156390672,759.5887681294978)" opacity="0.81"></path><path d="M152 728H202C230 728 252 750 252 778H202C174 778 152 756 152 728Z " transform="matrix(-0.04398329356530795,-0.5027313458991759,0.5027313458991759,-0.04398329356530795,-167.6720781618872,887.6711519263104)" opacity="0.78"></path><path d="M606 389H656C684 389 706 411 706 439H656C628 439 606 417 606 389Z " transform="matrix(-0.3733635484667486,-0.18210156996982255,0.18210156996982255,-0.3733635484667486,825.5364378266805,688.0311389654375)" opacity="0.64"></path><path d="M82 449H132C160 449 182 471 182 499H132C104 499 82 477 82 449Z " transform="matrix(-0.2571216348046653,-0.3811984999215833,0.3811984999215833,-0.2571216348046653,-14.748033168614654,646.1938568870604)" opacity="0.71"></path><path d="M96 191H146C174 191 196 213 196 241H146C118 241 96 219 96 191Z " transform="matrix(-0.2207282720139792,-0.4151295028268549,0.4151295028268549,-0.2207282720139792,88.5583551034403,324.28621416774035)" opacity="0.72"></path><path d="M426 28H476C504 28 526 50 526 78H476C448 78 426 56 426 28Z " transform="matrix(0.08224641672667782,-0.5192834381846575,0.5192834381846575,0.08224641672667782,409.32868341431447,295.819856489383)" opacity="0.81"></path><path d="M82 663H132C160 663 182 685 182 713H132C104 713 82 691 82 663Z " transform="matrix(-0.2571216348046653,-0.3811984999215833,0.3811984999215833,-0.2571216348046653,-96.32451215183346,915.2178867352587)" opacity="0.71"></path><path d="M272 303H322C350 303 372 325 372 353H322C294 353 272 331 272 303Z " transform="matrix(0.11979856989203477,-0.518904615261093,0.518904615261093,0.11979856989203477,113.22414668912626,455.79335518948454)" opacity="0.82"></path><path d="M-7 612H43C71 612 93 634 93 662H43C15 662 -7 640 -7 612Z " transform="matrix(-0.38313765725157023,-0.11713693704399707,0.11713693704399707,-0.38313765725157023,-15.141309635208607,886.095575962142)" opacity="0.61"></path><path d="M269 204H319C347 204 369 226 369 254H319C291 254 269 232 269 204Z " transform="matrix(0.11979856989203477,-0.518904615261093,0.518904615261093,0.11979856989203477,161.95509930965062,367.09669976301274)" opacity="0.82"></path><path d="M702 265H752C780 265 802 287 802 315H752C724 315 702 293 702 265Z " transform="matrix(-0.35184622292399304,0.06839197758090443,-0.06839197758090443,-0.35184622292399304,1036.4220331373049,340.60463750711784)" filter="url(#llleaves-blur-2)" opacity="0.55"></path><path d="M463 126H513C541 126 563 148 563 176H513C485 176 463 154 463 126Z " transform="matrix(-0.08634674602261093,-0.48969673090118115,0.48969673090118115,-0.08634674602261093,483.35167434352104,415.2527816017202)" opacity="0.76"></path></g></svg>