<svg xmlns="http://www.w3.org/2000/svg" version="1.1" xmlns:xlink="http://www.w3.org/1999/xlink" xmlns:svgjs="http://svgjs.dev/svgjs" viewBox="0 0 800 800"><g fill="none" stroke-width="3" stroke="hsl(335, 77%, 50%)" stroke-linecap="round"><line x1="303" y1="400" x2="497" y2="400" transform="rotate(0, 400, 400)" opacity="0.32"></line><line x1="169" y1="400" x2="631" y2="400" transform="rotate(4, 400, 400)" opacity="0.12"></line><line x1="333" y1="400" x2="467" y2="400" transform="rotate(8, 400, 400)" opacity="0.53"></line><line x1="593" y1="400" x2="207" y2="400" transform="rotate(12, 400, 400)" opacity="0.58"></line><line x1="558.5" y1="400" x2="241.5" y2="400" transform="rotate(16, 400, 400)" opacity="0.53"></line><line x1="593" y1="400" x2="207" y2="400" transform="rotate(20, 400, 400)" opacity="0.60"></line><line x1="733" y1="400" x2="67" y2="400" transform="rotate(24, 400, 400)" opacity="0.81"></line><line x1="413" y1="400" x2="387" y2="400" transform="rotate(28, 400, 400)" opacity="0.39"></line><line x1="588" y1="400" x2="212" y2="400" transform="rotate(32, 400, 400)" opacity="0.46"></line><line x1="456.5" y1="400" x2="343.5" y2="400" transform="rotate(36, 400, 400)" opacity="0.77"></line><line x1="374" y1="400" x2="426" y2="400" transform="rotate(40, 400, 400)" opacity="0.34"></line><line x1="539" y1="400" x2="261" y2="400" transform="rotate(44, 400, 400)" opacity="0.43"></line><line x1="433.5" y1="400" x2="366.5" y2="400" transform="rotate(48, 400, 400)" opacity="0.34"></line><line x1="579" y1="400" x2="221" y2="400" transform="rotate(52, 400, 400)" opacity="0.85"></line><line x1="558.5" y1="400" x2="241.5" y2="400" transform="rotate(56, 400, 400)" opacity="0.48"></line><line x1="213" y1="400" x2="587" y2="400" transform="rotate(60, 400, 400)" opacity="0.89"></line><line x1="250" y1="400" x2="550" y2="400" transform="rotate(64, 400, 400)" opacity="0.39"></line><line x1="60.5" y1="400" x2="739.5" y2="400" transform="rotate(68, 400, 400)" opacity="0.10"></line><line x1="335.5" y1="400" x2="464.5" y2="400" transform="rotate(72, 400, 400)" opacity="0.78"></line><line x1="144.5" y1="400" x2="655.5" y2="400" transform="rotate(76, 400, 400)" opacity="0.73"></line><line x1="636.5" y1="400" x2="163.5" y2="400" transform="rotate(80, 400, 400)" opacity="0.64"></line><line x1="575.5" y1="400" x2="224.5" y2="400" transform="rotate(84, 400, 400)" opacity="0.38"></line><line x1="37" y1="400" x2="763" y2="400" transform="rotate(88, 400, 400)" opacity="0.55"></line><line x1="708" y1="400" x2="92" y2="400" transform="rotate(92, 400, 400)" opacity="0.51"></line><line x1="529" y1="400" x2="271" y2="400" transform="rotate(96, 400, 400)" opacity="0.71"></line><line x1="460.5" y1="400" x2="339.5" y2="400" transform="rotate(100, 400, 400)" opacity="0.41"></line><line x1="651" y1="400" x2="149" y2="400" transform="rotate(104, 400, 400)" opacity="0.37"></line><line x1="580.5" y1="400" x2="219.5" y2="400" transform="rotate(108, 400, 400)" opacity="0.14"></line><line x1="657.5" y1="400" x2="142.5" y2="400" transform="rotate(112, 400, 400)" opacity="0.67"></line><line x1="402" y1="400" x2="398" y2="400" transform="rotate(116, 400, 400)" opacity="0.94"></line><line x1="712" y1="400" x2="88" y2="400" transform="rotate(120, 400, 400)" opacity="0.79"></line><line x1="152" y1="400" x2="648" y2="400" transform="rotate(124, 400, 400)" opacity="0.76"></line><line x1="446.5" y1="400" x2="353.5" y2="400" transform="rotate(128, 400, 400)" opacity="0.40"></line><line x1="394.5" y1="400" x2="405.5" y2="400" transform="rotate(132, 400, 400)" opacity="0.19"></line><line x1="479.5" y1="400" x2="320.5" y2="400" transform="rotate(136, 400, 400)" opacity="0.92"></line><line x1="696.5" y1="400" x2="103.5" y2="400" transform="rotate(140, 400, 400)" opacity="0.39"></line><line x1="115" y1="400" x2="685" y2="400" transform="rotate(144, 400, 400)" opacity="0.36"></line><line x1="205.5" y1="400" x2="594.5" y2="400" transform="rotate(148, 400, 400)" opacity="0.65"></line><line x1="232" y1="400" x2="568" y2="400" transform="rotate(152, 400, 400)" opacity="0.75"></line><line x1="232" y1="400" x2="568" y2="400" transform="rotate(156, 400, 400)" opacity="0.34"></line><line x1="306.5" y1="400" x2="493.5" y2="400" transform="rotate(160, 400, 400)" opacity="0.56"></line><line x1="192" y1="400" x2="608" y2="400" transform="rotate(164, 400, 400)" opacity="0.27"></line><line x1="569.5" y1="400" x2="230.5" y2="400" transform="rotate(168, 400, 400)" opacity="0.18"></line><line x1="536.5" y1="400" x2="263.5" y2="400" transform="rotate(172, 400, 400)" opacity="0.59"></line><line x1="278" y1="400" x2="522" y2="400" transform="rotate(176, 400, 400)" opacity="0.53"></line><line x1="639" y1="400" x2="161" y2="400" transform="rotate(180, 400, 400)" opacity="0.98"></line><line x1="570.5" y1="400" x2="229.5" y2="400" transform="rotate(184, 400, 400)" opacity="0.30"></line><line x1="289.5" y1="400" x2="510.5" y2="400" transform="rotate(188, 400, 400)" opacity="0.56"></line><line x1="220.5" y1="400" x2="579.5" y2="400" transform="rotate(192, 400, 400)" opacity="0.79"></line><line x1="477" y1="400" x2="323" y2="400" transform="rotate(196, 400, 400)" opacity="0.99"></line><line x1="364" y1="400" x2="436" y2="400" transform="rotate(200, 400, 400)" opacity="0.99"></line><line x1="246.5" y1="400" x2="553.5" y2="400" transform="rotate(204, 400, 400)" opacity="0.83"></line><line x1="381.5" y1="400" x2="418.5" y2="400" transform="rotate(208, 400, 400)" opacity="0.41"></line><line x1="370" y1="400" x2="430" y2="400" transform="rotate(212, 400, 400)" opacity="0.77"></line><line x1="248.5" y1="400" x2="551.5" y2="400" transform="rotate(216, 400, 400)" opacity="0.53"></line><line x1="104.5" y1="400" x2="695.5" y2="400" transform="rotate(220, 400, 400)" opacity="0.79"></line><line x1="635.5" y1="400" x2="164.5" y2="400" transform="rotate(224, 400, 400)" opacity="0.38"></line><line x1="450.5" y1="400" x2="349.5" y2="400" transform="rotate(228, 400, 400)" opacity="0.53"></line><line x1="559" y1="400" x2="241" y2="400" transform="rotate(232, 400, 400)" opacity="0.93"></line><line x1="565" y1="400" x2="235" y2="400" transform="rotate(236, 400, 400)" opacity="0.49"></line><line x1="573.5" y1="400" x2="226.5" y2="400" transform="rotate(240, 400, 400)" opacity="0.40"></line><line x1="108.5" y1="400" x2="691.5" y2="400" transform="rotate(244, 400, 400)" opacity="0.37"></line><line x1="665" y1="400" x2="135" y2="400" transform="rotate(248, 400, 400)" opacity="0.65"></line><line x1="476" y1="400" x2="324" y2="400" transform="rotate(252, 400, 400)" opacity="0.77"></line><line x1="147.5" y1="400" x2="652.5" y2="400" transform="rotate(256, 400, 400)" opacity="0.21"></line><line x1="507.5" y1="400" x2="292.5" y2="400" transform="rotate(260, 400, 400)" opacity="0.91"></line><line x1="218.5" y1="400" x2="581.5" y2="400" transform="rotate(264, 400, 400)" opacity="0.64"></line><line x1="249.5" y1="400" x2="550.5" y2="400" transform="rotate(268, 400, 400)" opacity="0.84"></line><line x1="373.5" y1="400" x2="426.5" y2="400" transform="rotate(272, 400, 400)" opacity="0.73"></line><line x1="201.5" y1="400" x2="598.5" y2="400" transform="rotate(276, 400, 400)" opacity="0.39"></line><line x1="672" y1="400" x2="128" y2="400" transform="rotate(280, 400, 400)" opacity="0.41"></line><line x1="467.5" y1="400" x2="332.5" y2="400" transform="rotate(284, 400, 400)" opacity="0.55"></line><line x1="264.5" y1="400" x2="535.5" y2="400" transform="rotate(288, 400, 400)" opacity="0.71"></line><line x1="610.5" y1="400" x2="189.5" y2="400" transform="rotate(292, 400, 400)" opacity="0.21"></line><line x1="276.5" y1="400" x2="523.5" y2="400" transform="rotate(296, 400, 400)" opacity="0.27"></line><line x1="684.5" y1="400" x2="115.5" y2="400" transform="rotate(300, 400, 400)" opacity="0.46"></line><line x1="583.5" y1="400" x2="216.5" y2="400" transform="rotate(304, 400, 400)" opacity="0.67"></line><line x1="491.5" y1="400" x2="308.5" y2="400" transform="rotate(308, 400, 400)" opacity="0.71"></line><line x1="630" y1="400" x2="170" y2="400" transform="rotate(312, 400, 400)" opacity="0.19"></line><line x1="482" y1="400" x2="318" y2="400" transform="rotate(316, 400, 400)" opacity="0.56"></line><line x1="368" y1="400" x2="432" y2="400" transform="rotate(320, 400, 400)" opacity="0.64"></line><line x1="252" y1="400" x2="548" y2="400" transform="rotate(324, 400, 400)" opacity="0.91"></line><line x1="197" y1="400" x2="603" y2="400" transform="rotate(328, 400, 400)" opacity="0.28"></line><line x1="435" y1="400" x2="365" y2="400" transform="rotate(332, 400, 400)" opacity="0.08"></line><line x1="431.5" y1="400" x2="368.5" y2="400" transform="rotate(336, 400, 400)" opacity="0.13"></line><line x1="235.5" y1="400" x2="564.5" y2="400" transform="rotate(340, 400, 400)" opacity="0.45"></line><line x1="105.5" y1="400" x2="694.5" y2="400" transform="rotate(344, 400, 400)" opacity="0.60"></line><line x1="330.5" y1="400" x2="469.5" y2="400" transform="rotate(348, 400, 400)" opacity="0.14"></line></g></svg>